<?xml version="1.0" encoding="utf-8"?>
<!-- Generator: Adobe Illustrator 22.0.1, SVG Export Plug-In . SVG Version: 6.00 Build 0)  -->
<svg version="1.1" id="Capa_1" xmlns="http://www.w3.org/2000/svg" xmlns:xlink="http://www.w3.org/1999/xlink" x="0px" y="0px"
	 viewBox="0 0 19.1 19.4" style="enable-background:new 0 0 19.1 19.4;" xml:space="preserve">
<style type="text/css">
	.st0{fill:#006CAC;}
	.st1{fill:#F1F1F1;}
	.st2{fill:#FFFFFF;}
	.st3{clip-path:url(#SVGID_2_);}
	.st4{fill:#0CD4AA;}
	.st5{fill:url(#SVGID_7_);}
	.st6{fill:url(#SVGID_8_);}
	.st7{fill:url(#SVGID_9_);}
	.st8{fill:#2472A8;}
	.st9{clip-path:url(#SVGID_11_);}
	.st10{fill:url(#SVGID_12_);}
	.st11{fill:#EF295D;}
	.st12{fill:#6AC259;}
</style>
<g>
	
		<image style="overflow:visible;opacity:0.3;" width="513" height="256" xlink:href="30D0C159.png"  transform="matrix(1 0 0 1 -250 -234.5)">
	</image>
	<g>
		<polygon class="st0" points="204,-82.7 -218.5,-36.5 -218.5,-201.5 204,-201.5 		"/>
	</g>
</g>
<rect x="1074" y="-734.5" class="st1" width="352" height="300"/>
<g>
	
		<image style="overflow:visible;opacity:0.39;" width="347" height="165" xlink:href="30D0C15B.png"  transform="matrix(1 0 0 1 1078.0183 -618.4817)">
	</image>
	<g>
		<rect x="1085" y="-612.5" class="st2" width="330" height="148"/>
	</g>
</g>
<g>
	<text transform="matrix(1 0 0 1 1095.667 -571.2949)"><tspan x="0" y="0" style="fill:#666666; font-family:'TradeGothicLH-BoldExtended'; font-size:15px;"> Carga virtual de SUBE en tu kiosco.</tspan><tspan x="0" y="18" style="fill:#666666; font-family:'TradeGothicLH-BoldExtended'; font-size:15px;">¿Sí o no? </tspan></text>
</g>
<text transform="matrix(1 0 0 1 852.667 -694.2949)" style="fill:#666666; font-family:'TradeGothicLH-BoldExtended'; font-size:15px;">COMBOS </text>
<g>
	<defs>
		<path id="SVGID_1_" d="M1415-612.5h-330v-90.1c0-10.4,8.4-18.9,18.9-18.9h292.3c10.4,0,18.9,8.4,18.9,18.9V-612.5z"/>
	</defs>
	<clipPath id="SVGID_2_">
		<use xlink:href="#SVGID_1_"  style="overflow:visible;"/>
	</clipPath>
	<g class="st3">
		
			<image style="overflow:visible;" width="402" height="268" xlink:href="30D0C15E.png"  transform="matrix(1.053 0 0 1.0645 1045 -817.5)">
		</image>
	</g>
</g>
<path class="st0" d="M1310-447.5h-107c-9.9,0-18-8-18-18v0c0-9.9,8-18,18-18h107c9.9,0,18,8,18,18v0
	C1328-455.6,1320-447.5,1310-447.5z"/>
<text transform="matrix(1 0 0 1 1203.5215 -459.9258)" class="st2" style="font-family:'TradeGothic-BoldCondTwenty'; font-size:15.6267px;">LEER EL ARTÍCULO</text>
<rect x="-204" y="-1487.5" class="st1" width="1116" height="200"/>
<g>
	
		<image style="overflow:visible;opacity:0.39;" width="1008" height="213" xlink:href="30D0C15F.png"  transform="matrix(1 0 0 1 -96.1799 -1488.6799)">
	</image>
	<g>
		<path class="st2" d="M879.5-1296.5H-84v-181h963.5c6.9,0,12.5,5.6,12.5,12.5v156C892-1302.1,886.4-1296.5,879.5-1296.5z"/>
	</g>
</g>
<text transform="matrix(1 0 0 1 211.667 -1432.2949)" style="fill:#666666; font-family:'TradeGothicLH-BoldExtended'; font-size:19px;">COMBOS DE PRODUCTOS </text>
<text transform="matrix(1 0 0 1 211.667 -1392.979)"><tspan x="0" y="0" style="fill:#666666; font-family:'TradeGothicLH-Extended'; font-size:19px;">Aprendé cómo realizar la comunicación y ofertas de</tspan><tspan x="0" y="22.8" style="fill:#666666; font-family:'TradeGothicLH-Extended'; font-size:19px;">combos en las carameleras.</tspan></text>
<g>
	<defs>
		<path id="SVGID_3_" d="M172-1299.5h-344c-8.3,0-15-6.7-15-15v-145c0-8.3,6.7-15,15-15h344V-1299.5z"/>
	</defs>
	<clipPath id="SVGID_4_">
		<use xlink:href="#SVGID_3_"  style="overflow:visible;"/>
	</clipPath>
	<g style="clip-path:url(#SVGID_4_);">
		
			<image style="overflow:visible;" width="3024" height="4032" xlink:href="../../../../../../../2018/GoOpen/_Contenidos/Tips de Kiosqueros/Artículos Sergio Iribarren/_Imágenes  Artículos/Artículos Agosto/Combos.jpg"  transform="matrix(0.1318 0 0 0.1318 -206.25 -1588.8334)">
		</image>
	</g>
</g>
<path class="st0" d="M831-1314.5H700c-12.2,0-22-9.8-22-22l0,0c0-12.2,9.8-22,22-22h131c12.2,0,22,9.8,22,22l0,0
	C853-1324.3,843.2-1314.5,831-1314.5z"/>
<path class="st4" d="M-69-1314.5h-118v-44h118c12.2,0,22,9.8,22,22l0,0C-47-1324.3-56.8-1314.5-69-1314.5z"/>
<text transform="matrix(1 0 0 1 700.667 -1329.6763)" class="st2" style="font-family:'TradeGothic-BoldCondTwenty'; font-size:19.1236px;">LEER EL ARTÍCULO</text>
<text transform="matrix(1 0 0 1 -162.333 -1326.6377)" class="st2" style="font-family:'TradeGothic-BoldCondTwenty'; font-size:24.9761px;">#OPENTIP </text>
<path class="st4" d="M1334.9-627.5h80.1v29.9h-80.1c-8.2,0-14.9-6.7-14.9-14.9v0C1320-620.8,1326.7-627.5,1334.9-627.5z"/>
<text transform="matrix(1 0 0 1 1336.7383 -605.8794)" class="st2" style="font-family:'TradeGothic-BoldCondTwenty'; font-size:16.948px;">#OPENTIP </text>
<rect x="1099" y="-539.5" style="fill:none;" width="292" height="94"/>
<text transform="matrix(1 0 0 1 1099 -530.2705)"><tspan x="0" y="0" style="fill:#666666; font-family:'TradeGothicLH-Extended'; font-size:13px;">Descubrí los pros y contras de ofrecer una carga </tspan><tspan x="0" y="15.6" style="fill:#666666; font-family:'TradeGothicLH-Extended'; font-size:13px;">virtual de SUBE para tus clientes en tu negocio. </tspan></text>
<rect x="1074" y="-1487.5" class="st1" width="352" height="300"/>
<g>
	
		<image style="overflow:visible;opacity:0.39;" width="347" height="159" xlink:href="30D0C15A.png"  transform="matrix(1 0 0 1 1078.1818 -1371.3182)">
	</image>
	<g>
		<rect x="1085" y="-1365.5" class="st2" width="330" height="142"/>
	</g>
</g>
<text transform="matrix(1 0 0 1 1100.667 -1324.2949)" style="fill:#666666; font-family:'TradeGothicLH-BoldExtended'; font-size:15px;">COMBOS DE PRODUCTOS </text>
<g>
	<defs>
		<path id="SVGID_5_" d="M1415-1365.5h-330v-90.1c0-10.4,8.4-18.9,18.9-18.9h292.3c10.4,0,18.9,8.4,18.9,18.9V-1365.5z"/>
	</defs>
	<clipPath id="SVGID_6_">
		<use xlink:href="#SVGID_5_"  style="overflow:visible;"/>
	</clipPath>
	<g style="clip-path:url(#SVGID_6_);">
		
			<image style="overflow:visible;" width="3024" height="4032" xlink:href="../../../../../../../2018/GoOpen/_Contenidos/Tips de Kiosqueros/Artículos Sergio Iribarren/_Imágenes  Artículos/Artículos Agosto/Combos.jpg"  transform="matrix(0.1127 0 0 0.1127 1080 -1579.5)">
		</image>
	</g>
</g>
<path class="st0" d="M1310-1205.5h-107c-9.9,0-18-8-18-18l0,0c0-9.9,8-18,18-18h107c9.9,0,18,8,18,18l0,0
	C1328-1213.6,1320-1205.5,1310-1205.5z"/>
<text transform="matrix(1 0 0 1 1203.5215 -1217.9258)" class="st2" style="font-family:'TradeGothic-BoldCondTwenty'; font-size:15.6267px;">LEER EL ARTÍCULO</text>
<path class="st4" d="M1334.9-1380.5h80.1v29.9h-80.1c-8.2,0-14.9-6.7-14.9-14.9l0,0C1320-1373.8,1326.7-1380.5,1334.9-1380.5z"/>
<text transform="matrix(1 0 0 1 1336.7383 -1358.8794)" class="st2" style="font-family:'TradeGothic-BoldCondTwenty'; font-size:16.948px;">#OPENTIP </text>
<rect x="1104" y="-1307.5" style="fill:none;" width="292" height="94"/>
<text transform="matrix(1 0 0 1 1104 -1298.2705)"><tspan x="0" y="0" style="fill:#666666; font-family:'TradeGothicLH-Extended'; font-size:13px;">Aprendé cómo realizar la comunicación y ofertas de </tspan><tspan x="0" y="15.6" style="fill:#666666; font-family:'TradeGothicLH-Extended'; font-size:13px;">combos en las carameleras.</tspan></text>
<g>
	
		<image style="overflow:visible;opacity:0.3;" width="513" height="256" xlink:href="30D0C157.png"  transform="matrix(1 0 0 1 -250 -1097.5)">
	</image>
	<g>
		<polygon class="st0" points="204,-945.7 -218.5,-899.5 -218.5,-1064.5 204,-1064.5 		"/>
	</g>
</g>
<g>
	
		<image style="overflow:visible;opacity:0.3;" width="513" height="256" xlink:href="30D0C169.png"  transform="matrix(1 0 0 1 -275 -1177.5)">
	</image>
	<g>
		<linearGradient id="SVGID_7_" gradientUnits="userSpaceOnUse" x1="12.7877" y1="-972.7905" x2="-125.5151" y2="-1246.7252">
			<stop  offset="0" style="stop-color:#00D5AA"/>
			<stop  offset="1" style="stop-color:#266DA8"/>
		</linearGradient>
		<polygon class="st5" points="179,-1025.7 -243.5,-979.5 -243.5,-1144.5 179,-1144.5 		"/>
	</g>
</g>
<g>
	
		<image style="overflow:visible;opacity:0.3;" width="513" height="256" xlink:href="E2BF1E2.png"  transform="matrix(1 0 0 1 -275 -344.5)">
	</image>
	<g>
		<linearGradient id="SVGID_8_" gradientUnits="userSpaceOnUse" x1="12.7877" y1="-139.7905" x2="-125.5151" y2="-413.7253">
			<stop  offset="0" style="stop-color:#00D5AA"/>
			<stop  offset="1" style="stop-color:#266DA8"/>
		</linearGradient>
		<polygon class="st6" points="179,-192.7 -243.5,-146.5 -243.5,-311.5 179,-311.5 		"/>
	</g>
</g>
<g>
	
		<image style="overflow:visible;opacity:0.3;" width="395" height="243" xlink:href="E2BF1E5.png"  transform="matrix(1 0 0 1 579 -1056.5)">
	</image>
	<g>
		
			<linearGradient id="SVGID_9_" gradientUnits="userSpaceOnUse" x1="774.7144" y1="-979.3005" x2="661.8539" y2="-1202.8419" gradientTransform="matrix(-1 0 0 -1 1499.5 -2001.9922)">
			<stop  offset="0" style="stop-color:#00D5AA"/>
			<stop  offset="1" style="stop-color:#266DA8"/>
		</linearGradient>
		<polygon class="st7" points="610.5,-990.3 915,-1023.5 912,-871.5 610.5,-871.5 		"/>
	</g>
</g>
<g>
	<text transform="matrix(1.0246 -0.1032 -3.926000e-02 0.9992 -168.6998 -1062.0287)"><tspan x="0" y="0" class="st2" style="font-family:'TradeGothicLTStd-BdCn20'; font-size:22.9839px;">Combos. ¿Cómo realizar </tspan><tspan x="0" y="23.4" class="st2" style="font-family:'TradeGothicLTStd-BdCn20'; font-size:22.9839px;">la comunicación y ofertas </tspan><tspan x="0" y="46.9" class="st2" style="font-family:'TradeGothicLTStd-BdCn20'; font-size:22.9839px;">de combos en las carameleras?</tspan></text>
</g>
<g>
	<text transform="matrix(1.0246 -0.1032 -3.926000e-02 0.9992 -187.6998 -201.0286)"><tspan x="0" y="0" class="st2" style="font-family:'TradeGothicLTStd-BdCn20'; font-size:22.9839px;">Carga virtual de SUBE en tu negocio. </tspan><tspan x="0" y="23.4" class="st2" style="font-family:'TradeGothicLTStd-BdCn20'; font-size:22.9839px;">Pros y contras. </tspan></text>
</g>
<g>
	<text transform="matrix(1.0246 -0.1032 -3.926000e-02 0.9992 -186.6998 -119.0286)"><tspan x="0" y="0" class="st2" style="font-family:'TradeGothicLTStd-BdCn20'; font-size:18.5266px;">Te acercamos toda la información necesaria acerca</tspan><tspan x="0" y="19.8" class="st2" style="font-family:'TradeGothicLTStd-BdCn20'; font-size:18.5266px;">del tema para que puedas tomar la decisión correcta</tspan><tspan x="0" y="39.6" class="st2" style="font-family:'TradeGothicLTStd-BdCn20'; font-size:18.5266px;">y así potenciar tu negocio. </tspan></text>
</g>
<g>
	<text transform="matrix(1.0246 -0.1032 -3.926000e-02 0.9992 -156.6998 -959.0286)"><tspan x="0" y="0" class="st2" style="font-family:'TradeGothicLTStd-BdCn20'; font-size:18.5266px;">Consejos para saber cuál es la mejor manera </tspan><tspan x="0" y="19.8" class="st2" style="font-family:'TradeGothicLTStd-BdCn20'; font-size:18.5266px;">para comunicar los combos en la caramelera.</tspan></text>
</g>
<g>
	<text transform="matrix(1.0246 -0.1032 -3.926000e-02 0.9992 637.9575 -960.6371)"><tspan x="0" y="0" class="st2" style="font-family:'TradeGothicLTStd-Cn18'; font-size:17.5492px;">¡Respondé la encuesta con</tspan><tspan x="0" y="17.9" class="st2" style="font-family:'TradeGothicLTStd-Cn18'; font-size:17.5492px;">preguntas que pensamos para vos!</tspan></text>
</g>
<g>
	
		<text transform="matrix(1.0246 -0.1032 -3.926000e-02 0.9992 610.3002 -1011.0286)" class="st0" style="font-family:'TradeGothicLTStd-BdCn20'; font-size:22.9839px;">Queremos conocer tu opinión. </text>
</g>
<g>
	<polygon class="st8" points="290,-1071.3 253.8,-1065.9 253.8,-1092.9 290,-1098.2 	"/>
	
		<text transform="matrix(1.0298 0 0 1 261.7329 -1074.5361)" style="fill:#01D3AA; font-family:'TradeGothicLTStd-BdCn20'; font-size:20.6248px;">01.</text>
</g>
<g>
	<polygon class="st8" points="304,-1006.3 267.8,-1000.9 267.8,-1027.9 304,-1033.2 	"/>
	
		<text transform="matrix(1.0298 0 0 1 275.7329 -1009.5361)" style="fill:#01D3AA; font-family:'TradeGothicLTStd-BdCn20'; font-size:20.6248px;">02.</text>
</g>
<g>
	<polygon class="st8" points="296,-949.3 259.8,-943.9 259.8,-970.9 296,-976.2 	"/>
	
		<text transform="matrix(1.0298 0 0 1 267.7329 -952.5361)" style="fill:#01D3AA; font-family:'TradeGothicLTStd-BdCn20'; font-size:20.6248px;">03.</text>
</g>
<text transform="matrix(1.0298 0 0 1 308.7993 -1087.2285)"><tspan x="0" y="0" style="fill:#808080; font-family:'TradeGothicLTStd-Cn18'; font-size:14.1403px;">Incorporá atriles verticlales. Presentar los </tspan><tspan x="0" y="15.1" style="fill:#808080; font-family:'TradeGothicLTStd-Cn18'; font-size:14.1403px;">caramelos de forma vertical irrumpe con el </tspan><tspan x="0" y="30.3" style="fill:#808080; font-family:'TradeGothicLTStd-Cn18'; font-size:14.1403px;">escaneo horizontal del consumidor.</tspan></text>
<g>
	<polygon class="st8" points="270,-305.3 233.8,-299.9 233.8,-326.9 270,-332.2 	"/>
	
		<text transform="matrix(1.0298 0 0 1 241.7329 -308.5361)" style="fill:#01D3AA; font-family:'TradeGothicLTStd-BdCn20'; font-size:20.6248px;">01.</text>
</g>
<polygon class="st8" points="338,-305.3 301.8,-299.9 301.8,-326.9 338,-332.2 "/>
<g>
	
		<text transform="matrix(1.0298 0 0 1 239 -237.5361)" class="st8" style="font-family:'TradeGothicLTStd-BdCn20'; font-size:17px;">positivo</text>
</g>
<g>
	
		<text transform="matrix(1.0298 0 0 1 235 -137.5361)" class="st8" style="font-family:'TradeGothicLTStd-BdCn20'; font-size:17px;">negativo</text>
</g>
<text transform="matrix(1.0298 0 0 1 323.4453 -1021.2227)"><tspan x="0" y="0" style="fill:#808080; font-family:'TradeGothicLTStd-Cn18'; font-size:14.1403px;">Pegá carteles superiores que indiquen </tspan><tspan x="0" y="15.1" style="fill:#808080; font-family:'TradeGothicLTStd-Cn18'; font-size:14.1403px;">la oferta del combo comunicado.</tspan></text>
<text transform="matrix(1.0298 0 0 1 308.7993 -960.0137)"><tspan x="0" y="0" style="fill:#808080; font-family:'TradeGothicLTStd-Cn18'; font-size:14.1403px;">Rotá semanalmente en combo para captar </tspan><tspan x="0" y="15.1" style="fill:#808080; font-family:'TradeGothicLTStd-Cn18'; font-size:14.1403px;">la atención de los clientes y renovar el interés.  </tspan></text>
<rect x="-204" y="-734.5" class="st1" width="1116" height="200"/>
<g>
	
		<image style="overflow:visible;opacity:0.39;" width="1008" height="213" xlink:href="E2BF1E6.png"  transform="matrix(1 0 0 1 -96.1799 -735.6799)">
	</image>
	<g>
		<path class="st2" d="M879.5-543.5H-84v-181h963.5c6.9,0,12.5,5.6,12.5,12.5v156C892-549.1,886.4-543.5,879.5-543.5z"/>
	</g>
</g>
<text transform="matrix(1 0 0 1 211.667 -679.2949)" style="fill:#666666; font-family:'TradeGothicLH-BoldExtended'; font-size:19px;">Carga virtual de SUBE en tu kiosco. ¿Sí o no? </text>
<text transform="matrix(1 0 0 1 211.667 -639.979)"><tspan x="0" y="0" style="fill:#666666; font-family:'TradeGothicLH-Extended'; font-size:19px;">Descubrí los pros y contras de ofrecer una carga virtual de</tspan><tspan x="0" y="22.8" style="fill:#666666; font-family:'TradeGothicLH-Extended'; font-size:19px;">SUBE para tus clientes en tu negocio.</tspan></text>
<g>
	<defs>
		<path id="SVGID_10_" d="M172-546.5h-344c-8.3,0-15-6.7-15-15v-145c0-8.3,6.7-15,15-15h344V-546.5z"/>
	</defs>
	<clipPath id="SVGID_11_">
		<use xlink:href="#SVGID_10_"  style="overflow:visible;"/>
	</clipPath>
	<g class="st9">
		
			<image style="overflow:visible;" width="402" height="268" xlink:href="E2BF1E4.png"  transform="matrix(1.053 0 0 1.0645 -219.313 -765.1467)">
		</image>
	</g>
</g>
<path class="st0" d="M831-561.5H700c-12.2,0-22-9.8-22-22l0,0c0-12.2,9.8-22,22-22h131c12.2,0,22,9.8,22,22l0,0
	C853-571.3,843.2-561.5,831-561.5z"/>
<path class="st4" d="M-69-561.5h-118v-44h118c12.2,0,22,9.8,22,22l0,0C-47-571.3-56.8-561.5-69-561.5z"/>
<text transform="matrix(1 0 0 1 700.667 -576.6763)" class="st2" style="font-family:'TradeGothic-BoldCondTwenty'; font-size:19.1236px;">LEER EL ARTÍCULO</text>
<text transform="matrix(1 0 0 1 -162.333 -573.6377)" class="st2" style="font-family:'TradeGothic-BoldCondTwenty'; font-size:24.9761px;">#OPENTIP </text>
<g>
	<rect x="239" y="-229.5" style="fill:none;" width="359" height="73"/>
	<text transform="matrix(1.0298 0 0 1 239 -219.4609)"><tspan x="0" y="0" style="fill:#808080; font-family:'TradeGothicLTStd-Cn18'; font-size:14.1403px;">Satisface una necesidad diaria y presente en todos aquellos </tspan><tspan x="0" y="15.1" style="fill:#808080; font-family:'TradeGothicLTStd-Cn18'; font-size:14.1403px;">que usan el transporte público </tspan><tspan x="0" y="30.3" style="fill:#808080; font-family:'TradeGothicLTStd-Cn18'; font-size:14.1403px;">Acerca clientes a los comercios </tspan><tspan x="0" y="45.4" style="fill:#808080; font-family:'TradeGothicLTStd-Cn18'; font-size:14.1403px;">Da lugar a compra de otros productos además de realizar </tspan><tspan x="0" y="60.5" style="fill:#808080; font-family:'TradeGothicLTStd-Cn18'; font-size:14.1403px;">una carga </tspan></text>
</g>
<g>
	<rect x="233" y="-122.5" style="fill:none;" width="359" height="82"/>
	<text transform="matrix(1.0298 0 0 1 233 -112.4609)"><tspan x="0" y="0" style="fill:#808080; font-family:'TradeGothicLTStd-Cn18'; font-size:14.1403px;">Los kioscos deben depositar el dinero para obtener crédito </tspan><tspan x="0" y="15.1" style="fill:#808080; font-family:'TradeGothicLTStd-Cn18'; font-size:14.1403px;">con anterioridad </tspan><tspan x="0" y="30.3" style="fill:#808080; font-family:'TradeGothicLTStd-Cn18'; font-size:14.1403px;">Cobran el 1 por ciento de las cargas </tspan><tspan x="0" y="45.4" style="fill:#808080; font-family:'TradeGothicLTStd-Cn18'; font-size:14.1403px;">El sistema no funciona correctamente todo el tiempo </tspan></text>
</g>
<g>
	
		<image style="overflow:visible;opacity:0.3;" width="395" height="243" xlink:href="E2BF1E3.png"  transform="matrix(1 0 0 1 579 -203.5)">
	</image>
	<g>
		
			<linearGradient id="SVGID_12_" gradientUnits="userSpaceOnUse" x1="774.7144" y1="-1832.3005" x2="661.8539" y2="-2055.8418" gradientTransform="matrix(-1 0 0 -1 1499.5 -2001.9922)">
			<stop  offset="0" style="stop-color:#00D5AA"/>
			<stop  offset="1" style="stop-color:#266DA8"/>
		</linearGradient>
		<polygon class="st10" points="610.5,-137.3 915,-170.5 912,-18.5 610.5,-18.5 		"/>
	</g>
</g>
<g>
	<text transform="matrix(1.0246 -0.1032 -3.926000e-02 0.9992 637.9575 -107.6372)"><tspan x="0" y="0" class="st2" style="font-family:'TradeGothicLTStd-Cn18'; font-size:17.5492px;">¡Respondé la encuesta con</tspan><tspan x="0" y="17.9" class="st2" style="font-family:'TradeGothicLTStd-Cn18'; font-size:17.5492px;">preguntas que pensamos para vos!</tspan></text>
</g>
<g>
	
		<text transform="matrix(1.0246 -0.1032 -3.926000e-02 0.9992 610.3002 -158.0286)" class="st0" style="font-family:'TradeGothicLTStd-BdCn20'; font-size:22.9839px;">Queremos conocer tu opinión. </text>
</g>
<path class="st11" d="M9.6,0.5c-5.2,0-9.5,4.2-9.5,9.5s4.2,9.5,9.5,9.5s9.5-4.2,9.5-9.5S14.8,0.5,9.6,0.5z M14.8,12.8l-2.4,2.4
	l-2.8-2.8l-2.8,2.8l-2.4-2.4L7.2,10L4.4,7.2l2.4-2.4l2.8,2.8l2.8-2.8l2.4,2.4L12,10L14.8,12.8z"/>
<path class="st12" d="M325.5-254.7c-5.2,0-9.5,4.2-9.5,9.5c0,5.2,4.2,9.5,9.5,9.5c5.2,0,9.5-4.2,9.5-9.5
	C335-250.5,330.8-254.7,325.5-254.7z M323.8-240.4l-4.2-4.2l1.4-1.4l2.8,2.8l6.3-6.3l1.4,1.4L323.8-240.4z"/>
<path class="st12" d="M-11.5,0.3c-5.2,0-9.5,4.2-9.5,9.5s4.2,9.5,9.5,9.5C-6.2,19.2-2,15-2,9.7S-6.2,0.3-11.5,0.3z M-13.2,14.6
	l-4.2-4.2L-16,9l2.8,2.8L-7,5.6L-5.6,7L-13.2,14.6z"/>
</svg>
